<?xml version="1.0"?>
<svg xmlns="http://www.w3.org/2000/svg" viewBox="0 0 512 512">
  <defs id="defs3051">
    <style type="text/css" id="current-color-scheme">
      .ColorScheme-Text {
        color:#232629;
      }
      </style>
  </defs>
  <g id="g5" transform="translate(429.54659,-449.62)">
    <g id="g217" transform="matrix(0.92754396,0,0,0.92754396,-392.71044,63.703927)">
      <g id="g219">
        <g id="g221">
          <path class="ColorScheme-Text" d="m 262.87,452.89 -55.44,0 c -2.92,0 -5.32,-2.39 -5.32,-5.32 l 0,-18.23 c 0,-2.92 2.39,-5.32 5.32,-5.32 l 55.44,0 c 2.92,0 5.32,2.39 5.32,5.32 l 0,18.23 c -0.01,2.93 -2.4,5.32 -5.32,5.32 z" id="path223" style="fill:currentColor"/>
          <path d="m 262.87,454.41 -55.44,0 c -3.77,0 -6.84,-3.07 -6.84,-6.84 l 0,-18.23 c 0,-3.77 3.07,-6.84 6.84,-6.84 l 55.44,0 c 3.77,0 6.84,3.07 6.84,6.84 l 0,18.23 c -0.01,3.77 -3.07,6.84 -6.84,6.84 z m -55.44,-28.86 c -2.09,0 -3.8,1.7 -3.8,3.8 l 0,18.23 c 0,2.09 1.7,3.8 3.8,3.8 l 55.44,0 c 2.09,0 3.8,-1.7 3.8,-3.8 l 0,-18.23 c 0,-2.09 -1.7,-3.8 -3.8,-3.8 l -55.44,0 z" id="path225"/>
        </g>
        <g id="g227">
          <path class="ColorScheme-Text" d="m 277.3,585.04 -82.02,0 c -2.09,0 -3.8,-1.71 -3.8,-3.8 l 0,-25.82 c 0,-2.09 1.71,-3.8 3.8,-3.8 l 82.02,0 c 2.09,0 3.8,1.71 3.8,3.8 l 0,25.82 c -0.01,2.09 -1.72,3.8 -3.8,3.8 z" id="path229" style="fill:currentColor"/>
          <path d="m 277.3,586.55 -82.02,0 c -2.93,0 -5.32,-2.38 -5.32,-5.32 l 0,-25.82 c 0,-2.93 2.38,-5.32 5.32,-5.32 l 82.02,0 c 2.93,0 5.32,2.38 5.32,5.32 l 0,25.82 c -0.01,2.94 -2.39,5.32 -5.32,5.32 z m -82.03,-33.41 c -1.26,0 -2.28,1.02 -2.28,2.28 l 0,25.82 c 0,1.26 1.02,2.28 2.28,2.28 l 82.02,0 c 1.26,0 2.28,-1.02 2.28,-2.28 l 0,-25.82 c 0,-1.26 -1.02,-2.28 -2.28,-2.28 l -82.02,0 z" id="path231"/>
        </g>
        <g id="g233">
          <path class="ColorScheme-Text" d="m 276.19,558.45 -79.06,0 c -14.18,0 -25.78,-11.6 -25.78,-25.78 l 0,-57.8 c 0,-14.18 11.6,-25.78 25.78,-25.78 l 79.06,0 c 14.18,0 25.78,11.6 25.78,25.78 l 0,57.8 c 0,14.18 -11.6,25.78 -25.78,25.78 z" id="path235" style="fill:currentColor"/>
          <path d="m 278.93,559.97 -85.29,0 c -13.36,0 -24.19,-10.83 -24.19,-24.19 l 0,-64.03 c 0,-13.36 10.83,-24.19 24.19,-24.19 l 85.29,0 c 13.36,0 24.19,10.83 24.19,24.19 l 0,64.03 c 0,13.36 -10.83,24.19 -24.19,24.19 z M 193.64,450.61 c -11.68,0 -21.15,9.47 -21.15,21.15 l 0,64.03 c 0,11.68 9.47,21.15 21.15,21.15 l 85.29,0 c 11.68,0 21.15,-9.47 21.15,-21.15 l 0,-64.03 c 0,-11.68 -9.47,-21.15 -21.15,-21.15 l -85.29,0 z" id="path237"/>
        </g>
      </g>
      <g id="g239">
        <g id="g241">
          <g id="g243">
            <path d="m 332.7,957.39 c 0,0.31 0,0.62 0,0.93 -0.03,0.16 -0.06,0.32 -0.1,0.49 -0.04,0.18 -0.05,0.37 -0.11,0.55 -0.36,1.09 -1.12,1.76 -2.22,2.05 -0.19,0.05 -0.4,0.05 -0.56,0.21 -28.99,0 -57.97,0 -86.96,0 -0.12,-0.06 -0.24,-0.13 -0.37,-0.17 -0.93,-0.24 -1.54,-0.85 -1.92,-1.71 -0.22,-0.51 -0.33,-1.04 -0.4,-1.59 -0.07,-0.63 -0.04,-1.27 -0.04,-1.9 0,-32.79 0,-65.58 0,-98.37 0,-0.17 0.01,-0.34 0,-0.51 -0.01,-0.1 -0.03,-0.19 -0.05,-0.28 -0.41,-0.06 -5.95,-0.1 -7.01,-0.05 -0.08,0 -0.16,0.03 -0.26,0.04 -0.05,0.26 -0.03,0.49 -0.03,0.73 0,32.96 0,65.92 0,98.88 0,0.21 0.01,0.41 0,0.62 -0.03,0.44 -0.05,0.89 -0.12,1.33 -0.08,0.51 -0.24,1 -0.5,1.45 -0.38,0.67 -0.93,1.13 -1.68,1.34 -0.16,0.05 -0.32,0.12 -0.47,0.19 -28.95,0 -57.91,0 -86.86,0 -0.21,-0.07 -0.41,-0.15 -0.63,-0.21 -1.15,-0.31 -1.91,-1.03 -2.25,-2.17 -0.05,-0.16 -0.09,-0.33 -0.11,-0.5 -0.03,-0.16 -0.08,-0.29 -0.2,-0.41 0,-0.31 0,-0.62 0,-0.93 0.1,-0.08 0.14,-0.19 0.14,-0.32 0,-0.22 0,-0.45 0,-0.67 0,-62.59 0,-125.18 0,-187.77 0,-0.24 -0.01,-0.48 0,-0.72 0,-0.11 0.04,-0.23 0.06,-0.36 0.54,-0.01 1.05,-0.02 1.56,-0.02 7.16,0 14.32,-0.01 21.48,-0.01 5.45,0 10.89,0 16.34,-0.01 1.71,0 3.43,-0.01 5.14,-0.01 3.77,-0.01 7.54,-0.01 11.3,-0.02 3.12,0 6.24,0 9.35,0 0.2,0 0.41,0.04 0.61,-0.06 20.35,0 40.71,0 61.06,0 0.17,0.11 0.37,0.06 0.55,0.06 3.6,0.01 7.19,0.01 10.79,0.02 3.56,0 7.13,0.01 10.69,0.01 3.6,0 7.19,0.01 10.79,0.01 5.67,0 11.34,0 17.01,0.01 4.8,0 9.59,0 14.39,0.01 0.39,0 0.79,0 1.18,0.01 0.1,0 0.19,0.04 0.31,0.06 0,0.29 0.01,0.57 0.01,0.84 0,62.68 0,125.35 0,188.03 0,0.15 -0.01,0.31 0,0.46 0.04,0.14 0.07,0.29 0.09,0.44 z" id="path245"/>
          </g>
          <g id="g247">
            <g id="g249">
              <path class="ColorScheme-Text" d="m 145.88,957.76 c -0.18,-0.12 -0.35,-0.26 -0.54,-0.36 -0.59,-0.34 -0.94,-0.84 -0.99,-1.53 -0.02,-0.27 -0.04,-0.55 -0.04,-0.82 0,-11.17 0,-22.33 0,-33.5 0,-0.3 0.02,-0.61 0.04,-0.91 0.04,-0.79 0.66,-1.62 1.81,-1.71 0.22,-0.02 0.44,-0.01 0.66,-0.01 26.56,0 53.12,0 79.68,0 0.38,0 0.78,0.02 1.14,0.12 0.76,0.21 1.24,0.85 1.29,1.64 0.01,0.22 0.01,0.44 0.01,0.66 0,11.28 0,22.55 0,33.83 0,0.17 0,0.33 0,0.5 0.01,0.79 -0.35,1.36 -1.04,1.75 -0.16,0.09 -0.29,0.23 -0.44,0.34 -27.19,0 -54.39,0 -81.58,0 z" id="path251" style="fill:currentColor"/>
            </g>
            <g id="g253">
              <path class="ColorScheme-Text" d="m 245.84,957.76 c -0.15,-0.11 -0.29,-0.25 -0.45,-0.34 -0.7,-0.37 -1.06,-0.94 -1.05,-1.73 0,-0.19 0,-0.39 0,-0.58 0,-11.22 0,-22.44 0,-33.66 0,-0.22 -0.01,-0.44 0,-0.66 0.04,-1.03 0.71,-1.75 1.75,-1.85 0.27,-0.03 0.55,-0.01 0.83,-0.01 15.14,0 30.28,0 45.43,0 11.34,0 22.67,0 34.01,0 0.28,0 0.55,-0.01 0.83,0.01 1.03,0.1 1.71,0.82 1.76,1.85 0.01,0.25 0.01,0.5 0.01,0.74 0,11.16 0,22.33 0,33.49 0,0.25 0,0.5 0,0.74 -0.01,0.73 -0.37,1.25 -0.98,1.62 -0.18,0.11 -0.35,0.25 -0.53,0.37 -27.22,0.01 -54.41,0.01 -81.61,0.01 z" id="path255" style="fill:currentColor"/>
            </g>
            <g id="g257">
              <path class="ColorScheme-Text" d="m 243.69,773.48 c 0.09,0.06 0.18,0.13 0.27,0.16 0.88,0.32 1.31,0.96 1.36,1.87 0.01,0.16 0,0.33 0,0.5 0,22.58 0,45.16 0,67.74 0,2.32 -0.61,4.47 -1.85,6.43 -1.17,1.85 -2.74,3.26 -4.83,3.96 -3.25,1.09 -6.15,0.36 -8.66,-1.91 -1.8,-1.63 -2.82,-3.71 -3.32,-6.06 -0.17,-0.81 -0.23,-1.64 -0.23,-2.46 0,-22.55 0,-45.11 0,-67.66 0,-0.17 0,-0.33 0,-0.5 0.04,-0.99 0.46,-1.56 1.4,-1.92 0.1,-0.04 0.19,-0.1 0.29,-0.15 5.2,0 10.38,0 15.57,0 z" id="path259" style="fill:currentColor"/>
            </g>
            <g id="g261">
              <path class="ColorScheme-Text" d="m 186.68,915.72 c -13.26,0 -26.53,0 -39.79,0 -0.25,0 -0.5,0.01 -0.74,0 -1.02,-0.05 -1.75,-0.73 -1.86,-1.76 -0.03,-0.33 -0.02,-0.66 -0.02,-0.99 0,-20.07 0,-40.13 0,-60.2 0,-0.61 0,-1.21 -0.02,-1.82 -0.03,-0.95 0.4,-1.64 1.19,-2.11 0.53,-0.31 1.11,-0.49 1.72,-0.56 0.68,-0.08 1.37,-0.14 2.06,-0.14 23.08,-0.01 46.16,-0.01 69.25,-0.01 0.72,0 1.43,0.05 2.13,0.25 1.16,0.33 2.01,0.99 2.41,2.17 0.23,0.69 0.68,1.26 1.18,1.78 0.72,0.74 1.53,1.36 2.44,1.82 0.87,0.43 1.41,1.12 1.78,1.98 0.32,0.74 0.48,1.52 0.53,2.33 0.03,0.47 0.04,0.94 0.04,1.4 0,17.78 0,35.56 0,53.34 0,0.28 0.01,0.55 -0.02,0.83 -0.08,0.9 -0.76,1.59 -1.66,1.68 -0.27,0.03 -0.55,0.01 -0.83,0.01 -13.26,0 -26.53,0 -39.79,0 z" id="path263" style="fill:currentColor"/>
            </g>
            <g id="g265">
              <path class="ColorScheme-Text" d="m 286.53,915.72 c -13.26,0 -26.53,0 -39.79,0 -0.25,0 -0.5,0 -0.74,0 -1.06,-0.03 -1.82,-0.94 -1.81,-1.8 0,-0.22 0,-0.44 0,-0.66 0,-17.83 0,-35.67 0,-53.5 0,-1 0.03,-1.99 0.35,-2.94 0.15,-0.47 0.35,-0.93 0.59,-1.36 0.3,-0.54 0.74,-0.95 1.3,-1.23 0.96,-0.5 1.83,-1.13 2.58,-1.91 0.5,-0.52 0.94,-1.09 1.17,-1.78 0.46,-1.36 1.51,-1.99 2.83,-2.25 0.59,-0.12 1.2,-0.14 1.81,-0.14 21.18,-0.01 42.36,-0.01 63.54,-0.01 1.96,0 3.92,-0.01 5.87,0 0.83,0 1.66,0.05 2.45,0.29 0.42,0.13 0.84,0.29 1.2,0.52 0.7,0.44 1.04,1.1 1.03,1.95 -0.02,2.26 -0.03,4.52 -0.03,6.78 0,18.44 0,36.88 0,55.32 0,0.28 0.01,0.55 0,0.83 -0.05,1.11 -0.79,1.85 -1.89,1.89 -0.25,0.01 -0.5,0 -0.74,0 -13.24,0 -26.48,0 -39.72,0 z" id="path267" style="fill:currentColor"/>
            </g>
            <g id="g269">
              <path class="ColorScheme-Text" d="m 183.77,845.08 c -12.3,0 -24.6,0 -36.9,0 -0.25,0 -0.5,0.01 -0.74,-0.01 -0.92,-0.06 -1.6,-0.66 -1.76,-1.57 -0.04,-0.22 -0.05,-0.44 -0.06,-0.66 -0.01,-0.3 -0.01,-0.61 -0.01,-0.91 0,-21.78 0,-43.56 0,-65.33 0,-0.36 0.01,-0.72 0.03,-1.07 0.05,-0.88 0.61,-1.7 1.8,-1.82 0.33,-0.03 0.66,-0.02 0.99,-0.02 17.51,0 35.03,0 52.54,0 7.01,0 14.01,0 21.02,0 0.38,0 0.78,0.01 1.15,0.09 0.84,0.17 1.39,0.82 1.47,1.67 0.02,0.22 0.01,0.44 0.01,0.66 0,22.19 0,44.38 0,66.57 0,0.22 0.01,0.44 -0.02,0.66 -0.1,0.97 -0.82,1.67 -1.8,1.73 -0.25,0.01 -0.5,0 -0.74,0 -12.32,0.01 -24.65,0.01 -36.98,0.01 z" id="path271" style="fill:currentColor"/>
            </g>
            <g id="g273">
              <path class="ColorScheme-Text" d="m 289.41,845.08 c -12.3,0 -24.6,0 -36.9,0 -0.28,0 -0.55,0.01 -0.83,-0.01 -0.94,-0.08 -1.63,-0.78 -1.71,-1.72 -0.02,-0.27 -0.01,-0.55 -0.01,-0.83 0,-22.11 0,-44.22 0,-66.32 0,-0.28 -0.01,-0.55 0.02,-0.83 0.08,-0.78 0.6,-1.39 1.36,-1.58 0.21,-0.05 0.43,-0.08 0.65,-0.1 0.19,-0.02 0.39,-0.01 0.58,-0.01 24.57,0 49.15,0 73.72,0 0.41,0 0.82,0.04 1.23,0.1 0.46,0.07 0.8,0.36 1.07,0.72 0.2,0.27 0.32,0.58 0.32,0.92 0,0.28 0.01,0.55 0.01,0.83 0,22.11 0,44.22 0,66.32 0,0.25 0.01,0.5 -0.01,0.74 -0.06,0.93 -0.76,1.65 -1.69,1.74 -0.27,0.02 -0.55,0.01 -0.83,0.01 -12.32,0.02 -24.65,0.02 -36.98,0.02 z" id="path275" style="fill:currentColor"/>
            </g>
          </g>
        </g>
        <g id="g277">
          <path class="ColorScheme-Text" d="m 329.32,771.86 -186.07,0 c -0.84,0 -1.52,-0.68 -1.52,-1.52 l 0,-24.3 c 0,-0.84 0.68,-1.52 1.52,-1.52 l 186.07,0 c 0.84,0 1.52,0.68 1.52,1.52 l 0,24.3 c 0,0.84 -0.69,1.52 -1.52,1.52 z" id="path279" style="fill:currentColor"/>
          <path d="m 329.32,773.38 -186.07,0 c -1.68,0 -3.04,-1.36 -3.04,-3.04 l 0,-24.3 c 0,-1.68 1.36,-3.04 3.04,-3.04 l 186.07,0 c 1.68,0 3.04,1.36 3.04,3.04 l 0,24.3 c 0,1.68 -1.37,3.04 -3.04,3.04 z m 0,-3.04 0,1.52 0,-1.52 0,0 0,0 z m -186.07,-24.3 0,24.3 186.07,0 0,-24.3 -186.07,0 z" id="path281"/>
        </g>
      </g>
      <g id="g283">
        <g id="g285">
          <path class="ColorScheme-Text" d="m 337.15,744.28 c -67.2,0 -134.4,0 -201.6,0 -0.02,-0.04 -0.04,-0.09 -0.08,-0.1 -0.57,-0.27 -0.89,-0.74 -1.01,-1.35 -0.04,-0.19 -0.13,-0.33 -0.27,-0.45 0,-0.54 0,-1.08 0,-1.63 0.05,-0.07 0.12,-0.14 0.13,-0.22 0.05,-0.31 0.1,-0.62 0.12,-0.94 0.07,-1.17 0.11,-2.35 0.18,-3.52 0.05,-0.79 0.1,-1.58 0.17,-2.37 0.15,-1.64 0.31,-3.28 0.48,-4.92 0.18,-1.68 0.37,-3.37 0.6,-5.05 0.31,-2.26 0.65,-4.52 1.02,-6.76 0.41,-2.43 0.85,-4.85 1.32,-7.26 0.58,-2.99 1.21,-5.97 1.82,-8.96 0.79,-3.87 1.56,-7.75 2.35,-11.62 0.84,-4.16 1.69,-8.32 2.53,-12.48 0.87,-4.32 1.74,-8.63 2.62,-12.95 0.84,-4.14 1.68,-8.28 2.52,-12.41 0.97,-4.78 1.93,-9.56 2.9,-14.34 1.02,-5.02 2.04,-10.05 3.06,-15.07 1.15,-5.69 2.3,-11.38 3.45,-17.06 1.21,-5.98 2.42,-11.95 3.63,-17.93 0.11,-0.55 0.21,-1.11 0.44,-1.63 0.87,-1.96 2.04,-3.72 3.6,-5.2 1.95,-1.84 4.25,-2.94 6.93,-3.24 0.18,-0.02 0.35,-0.08 0.52,-0.13 41.22,0 82.43,0 123.65,0 0.17,0.04 0.34,0.11 0.51,0.13 2.43,0.28 4.57,1.22 6.42,2.81 1.79,1.55 3.11,3.44 4.05,5.61 0.15,0.35 0.27,0.72 0.35,1.09 0.52,2.5 1.02,5 1.52,7.5 0.96,4.78 1.93,9.56 2.89,14.34 0.93,4.6 1.87,9.2 2.8,13.81 0.88,4.34 1.75,8.68 2.63,13.01 0.75,3.72 1.51,7.43 2.26,11.15 0.78,3.87 1.56,7.75 2.35,11.62 0.75,3.72 1.51,7.43 2.26,11.15 0.78,3.87 1.56,7.75 2.35,11.62 0.93,4.58 1.86,9.16 2.79,13.74 1.11,5.47 2.23,10.93 3.31,16.4 0.49,2.46 0.9,4.93 1.31,7.4 0.28,1.67 0.53,3.35 0.76,5.02 0.22,1.61 0.41,3.23 0.6,4.84 0.17,1.48 0.31,2.97 0.45,4.45 0.18,1.91 0.36,3.82 0.37,5.75 0,0.45 0.01,0.9 0.03,1.36 0.01,0.24 0.07,0.49 0.11,0.73 0,0.81 0,1.63 0,2.44 -0.04,0.1 -0.12,0.19 -0.13,0.29 -0.05,0.54 -0.36,0.9 -0.81,1.16 -0.07,0.05 -0.16,0.11 -0.26,0.17 z" id="path287" style="fill:currentColor"/>
          <path d="m 337.58,745.8 -202.82,0 -0.33,-0.47 c -0.69,-0.44 -1.16,-1.1 -1.39,-1.93 l -0.37,-0.29 0,-2.79 0.2,-0.32 c 0.02,-0.16 0.05,-0.33 0.06,-0.49 0.03,-0.57 0.06,-1.14 0.09,-1.71 0.03,-0.6 0.06,-1.2 0.09,-1.81 0.05,-0.81 0.1,-1.61 0.18,-2.42 0.15,-1.65 0.31,-3.3 0.49,-4.95 0.2,-1.8 0.38,-3.43 0.61,-5.09 0.37,-2.63 0.69,-4.79 1.03,-6.81 0.4,-2.37 0.84,-4.83 1.32,-7.3 0.38,-1.97 0.79,-3.94 1.19,-5.91 0.21,-1.02 0.42,-2.04 0.63,-3.06 l 19.42,-95.94 c 1.21,-5.98 2.42,-11.95 3.63,-17.93 l 0.03,-0.16 c 0.11,-0.54 0.23,-1.16 0.51,-1.79 1,-2.24 2.32,-4.16 3.95,-5.69 2.22,-2.09 4.84,-3.32 7.81,-3.64 0.01,0 0.05,-0.02 0.09,-0.03 0.07,-0.02 0.15,-0.04 0.22,-0.06 l 0.18,-0.05 124.03,0 0.19,0.05 c 0.07,0.02 0.14,0.04 0.21,0.06 0.04,0.01 0.08,0.03 0.12,0.03 2.69,0.31 5.12,1.38 7.2,3.17 1.89,1.63 3.39,3.7 4.46,6.16 0.2,0.46 0.35,0.92 0.44,1.39 0.43,2.09 0.85,4.18 1.27,6.27 l 1.27,6.31 c 0.62,3.09 1.24,6.17 1.87,9.26 l 18.32,90.41 c 0.82,4.03 1.64,8.06 2.44,12.09 0.46,2.36 0.87,4.76 1.26,7.08 l 0.06,0.37 c 0.25,1.51 0.5,3.12 0.76,5.07 0.2,1.45 0.39,3 0.6,4.88 0.17,1.49 0.31,2.98 0.45,4.48 0.18,1.94 0.36,3.9 0.38,5.88 0,0.43 0.01,0.86 0.03,1.28 0.01,0.1 0.03,0.21 0.05,0.31 l 0.06,0.5 0,2.78 -0.14,0.31 c -0.01,0.02 -0.02,0.04 -0.03,0.07 -0.12,0.65 -0.49,1.46 -1.51,2.06 l -0.61,0.37 z m -203.39,-0.84 c 0,0.01 0.01,0.01 0.01,0.02 l -0.01,-0.02 z m 1.87,-2.2 200.67,0 c 0,0 0.01,-0.01 0.01,-0.01 0.02,-0.18 0.07,-0.33 0.12,-0.45 l -0.01,-2.04 c -0.04,-0.23 -0.08,-0.46 -0.09,-0.7 -0.03,-0.48 -0.03,-0.95 -0.03,-1.43 -0.01,-1.84 -0.19,-3.73 -0.36,-5.57 -0.14,-1.52 -0.28,-3 -0.45,-4.47 -0.21,-1.85 -0.4,-3.38 -0.59,-4.81 -0.26,-1.91 -0.5,-3.5 -0.75,-4.98 l -0.06,-0.37 c -0.39,-2.3 -0.79,-4.68 -1.24,-6.99 -0.8,-4.03 -1.62,-8.05 -2.43,-12.08 l -18.32,-90.41 c -0.63,-3.09 -1.25,-6.17 -1.87,-9.26 l -1.27,-6.31 c -0.42,-2.09 -0.84,-4.17 -1.27,-6.26 -0.05,-0.26 -0.14,-0.53 -0.26,-0.8 -0.89,-2.06 -2.08,-3.71 -3.65,-5.06 -1.63,-1.41 -3.46,-2.21 -5.6,-2.45 -0.22,-0.03 -0.41,-0.08 -0.56,-0.12 l -123.24,0 c -0.15,0.04 -0.34,0.09 -0.56,0.12 -2.33,0.26 -4.31,1.18 -6.06,2.83 -1.35,1.27 -2.41,2.82 -3.26,4.71 -0.14,0.32 -0.22,0.7 -0.31,1.15 l -0.03,0.16 c -1.21,5.97 -2.42,11.95 -3.63,17.92 l -19.42,95.94 c -0.21,1.02 -0.42,2.05 -0.63,3.07 -0.4,1.96 -0.81,3.92 -1.19,5.88 -0.48,2.45 -0.92,4.88 -1.31,7.23 -0.33,1.99 -0.66,4.12 -1.02,6.72 -0.22,1.62 -0.4,3.22 -0.6,5 -0.18,1.63 -0.33,3.27 -0.48,4.9 -0.07,0.77 -0.13,1.54 -0.17,2.31 -0.03,0.59 -0.06,1.19 -0.09,1.78 -0.03,0.58 -0.06,1.16 -0.09,1.74 -0.02,0.38 -0.08,0.74 -0.14,1.1 -0.02,0.15 -0.07,0.28 -0.11,0.39 l 0,0.7 c 0.11,0.21 0.2,0.43 0.24,0.67 0.04,0.16 0.07,0.21 0.11,0.25 z" id="path289"/>
        </g>
        <g id="g291">
          <g id="g293">
            <g id="g295">
              <g id="g297">
                <path class="ColorScheme-Text" d="m 312.23,585.84 23.39,135.37 51.14,0 -6.65,-51.14 c 0,0 -2.85,-6.65 -10.08,-23.58 l -15.78,-33.65 c 0,0 -13.12,-28.33 -42.02,-27 z" id="path299" style="fill:currentColor"/>
                <path d="m 388.49,722.73 -54.15,0 -0.22,-1.26 -23.68,-137.07 1.72,-0.08 c 29.56,-1.36 43.33,27.58 43.47,27.88 l 15.78,33.65 c 7.25,16.97 10.1,23.62 10.1,23.62 l 0.08,0.19 0.03,0.21 6.87,52.86 z m -51.59,-3.04 48.13,0 -6.4,-49.22 c -0.52,-1.2 -3.47,-8.11 -9.99,-23.38 l -15.76,-33.6 c -0.13,-0.27 -12.48,-26.17 -38.71,-26.17 -0.05,0 -0.09,0 -0.13,0 l 22.86,132.37 z" id="path301"/>
              </g>
              <g id="g303">
                <path class="ColorScheme-Text" d="m 345.32,766.46 c 0,0 16.16,-33.65 44.11,-9.7 0,0 5.7,-61.6 -31.18,-51.14 -36.88,10.46 -12.93,60.84 -12.93,60.84 z" id="path305" style="fill:currentColor"/>
                <path d="m 345.31,769.98 -1.37,-2.87 c -0.55,-1.17 -13.47,-28.76 -4.86,-47.77 3.4,-7.51 9.71,-12.62 18.75,-15.18 8.51,-2.42 15.59,-1.34 21.05,3.2 15.28,12.7 12.2,48.05 12.06,49.54 l -0.27,2.92 -2.23,-1.91 c -7.8,-6.68 -15.32,-9.32 -22.37,-7.84 -12.31,2.59 -19.31,16.9 -19.38,17.04 l -1.38,2.87 z m 20.79,-64.03 c -2.31,0 -4.79,0.38 -7.44,1.13 -8.14,2.31 -13.79,6.85 -16.81,13.51 -6.52,14.39 0.64,35.02 3.64,42.43 2.86,-4.67 9.62,-13.75 19.94,-15.92 7.3,-1.53 14.9,0.69 22.65,6.62 0.39,-8.66 0.51,-34.34 -11.15,-44.03 -2.99,-2.49 -6.62,-3.74 -10.83,-3.74 z" id="path307"/>
              </g>
              <g id="g309">
                <path class="ColorScheme-Text" d="m 348.36,750.3 3.42,28.14 c 0,0 -13.88,4.18 -16.54,-14.07 -2.66,-18.25 -5.51,-31.56 -5.51,-31.56 l 18.63,17.49 z" id="path311" style="fill:currentColor"/>
                <path d="m 348.44,780.37 c -2.08,0 -4.75,-0.42 -7.3,-2.04 -3.95,-2.51 -6.44,-7.14 -7.41,-13.74 -2.62,-17.99 -4.76,-32.08 -4.79,-32.21 l 0.76,-1.52 20.1,18.71 3.64,29.95 -1.22,0.37 c -0.12,0.04 -1.64,0.48 -3.78,0.48 z m -16.28,-43.2 c 1.07,5.46 2.87,15.24 4.59,26.98 0.83,5.69 2.86,9.6 6.03,11.62 2.73,1.74 5.7,1.68 7.33,1.46 l -3.19,-26.2 -14.76,-13.86 z" id="path313"/>
              </g>
              <g id="g315">
                <path class="ColorScheme-Text" d="m 382.01,746.11 6.27,25.86 c 0,0 13.88,-2.47 12.17,-12.93 l -6.07,-37.87 -12.37,24.94 z" id="path317" style="fill:currentColor"/>
                <path d="m 387.14,773.72 -6.74,-27.78 14.73,-29.69 6.82,42.56 c 1.54,9.44 -8.09,13.72 -13.4,14.66 l -1.41,0.25 z m -3.52,-27.43 5.79,23.85 c 3.21,-0.88 10.72,-3.72 9.55,-10.86 l -5.32,-33.19 -10.02,20.2 z" id="path319"/>
              </g>
              <g id="g321">
                <path class="ColorScheme-Text" d="m 347.31,749.63 c 0,0 -17.49,-36.31 13.12,-38.02 30.61,-1.71 22.62,33.08 22.62,33.08 0,0 17.97,-14.35 8.65,-30.32 -9.32,-15.97 -33.46,-13.31 -33.46,-13.31 0,0 -26.24,2.66 -27.57,29.09 0.01,-0.01 -2.28,13.49 16.64,19.48 z" id="path323" style="fill:currentColor"/>
                <path d="m 350.2,752.14 -3.35,-1.06 c -18.98,-6.01 -18.08,-19.55 -17.91,-20.99 1.41,-27.36 28.87,-30.52 29.15,-30.55 1.01,-0.11 25.23,-2.58 34.93,14.05 9.86,16.91 -8.82,32.12 -9.01,32.28 l -3.4,2.71 0.97,-4.24 c 0.04,-0.16 3.64,-16.42 -3.91,-25.36 -3.65,-4.32 -9.42,-6.3 -17.15,-5.86 -7.08,0.4 -11.96,2.77 -14.49,7.06 -6.09,10.32 2.57,28.6 2.66,28.79 l 1.51,3.17 z m 11.88,-49.72 c -2.21,0 -3.61,0.14 -3.67,0.15 -1.03,0.11 -24.97,2.88 -26.22,27.66 l -0.02,0.18 c -0.07,0.46 -1.53,10.77 12.37,16.61 -2.38,-6.12 -6.43,-19.4 -1.14,-28.36 3.08,-5.22 8.78,-8.1 16.94,-8.56 8.74,-0.49 15.35,1.85 19.65,6.95 5.95,7.06 5.89,17.55 5.25,23.49 4.46,-4.78 11.39,-14.7 5.15,-25.39 -6.6,-11.34 -21.41,-12.73 -28.31,-12.73 z" id="path325"/>
              </g>
            </g>
            <g id="g327">
              <g id="g329">
                <path class="ColorScheme-Text" d="m 160.34,585.84 -23.39,135.37 -51.14,0 6.65,-51.14 c 0,0 2.85,-6.65 10.08,-23.58 l 15.78,-33.65 c 0,0 13.12,-28.33 42.02,-27 z" id="path331" style="fill:currentColor"/>
                <path d="m 90.96,669.87 0.03,-0.21 0.08,-0.19 c 0,0 2.85,-6.65 10.1,-23.62 l 15.78,-33.65 c 0.13,-0.29 13.9,-29.23 43.47,-27.88 l 1.72,0.08 -23.68,137.06 -0.22,1.26 -54.16,0 6.88,-52.85 z m 67.58,-82.55 c -0.05,0 -0.09,0 -0.13,0 -26.23,0 -38.58,25.89 -38.71,26.17 l -15.76,33.6 c -6.52,15.27 -9.48,22.18 -9.99,23.38 l -6.4,49.22 48.13,0 22.86,-132.37 z" id="path333"/>
              </g>
              <g id="g335">
                <path class="ColorScheme-Text" d="m 127.25,766.46 c 0,0 -16.16,-33.65 -44.11,-9.7 0,0 -5.7,-61.6 31.18,-51.14 36.88,10.46 12.93,60.84 12.93,60.84 z" id="path337" style="fill:currentColor"/>
                <path d="m 125.89,767.12 c -0.07,-0.14 -7.07,-14.45 -19.38,-17.04 -7.05,-1.48 -14.58,1.16 -22.37,7.84 l -2.23,1.91 -0.27,-2.92 c -0.14,-1.5 -3.22,-36.85 12.06,-49.54 5.46,-4.54 12.54,-5.62 21.05,-3.2 9.04,2.56 15.35,7.67 18.75,15.18 8.61,19.01 -4.31,46.61 -4.86,47.77 l -1.37,2.87 -1.38,-2.87 z M 95.63,709.69 c -11.66,9.69 -11.55,35.37 -11.15,44.03 7.75,-5.93 15.36,-8.15 22.65,-6.62 10.33,2.17 17.09,11.25 19.94,15.92 3,-7.41 10.17,-28.04 3.64,-42.43 -3.02,-6.66 -8.67,-11.2 -16.81,-13.51 -2.65,-0.75 -5.14,-1.13 -7.44,-1.13 -4.2,0 -7.83,1.25 -10.83,3.74 z" id="path339"/>
              </g>
              <g id="g341">
                <path class="ColorScheme-Text" d="m 124.21,750.3 -3.42,28.14 c 0,0 13.88,4.18 16.54,-14.07 2.66,-18.25 5.51,-31.56 5.51,-31.56 l -18.63,17.49 z" id="path343" style="fill:currentColor"/>
                <path d="m 120.35,779.89 -1.22,-0.37 3.64,-29.95 20.1,-18.71 0.76,1.52 c -0.03,0.13 -2.17,14.23 -4.79,32.21 -0.96,6.61 -3.46,11.23 -7.41,13.74 -2.55,1.62 -5.22,2.04 -7.3,2.04 -2.14,0 -3.66,-0.44 -3.78,-0.48 z m 5.3,-28.86 -3.19,26.2 c 1.63,0.22 4.6,0.28 7.33,-1.46 3.17,-2.02 5.2,-5.93 6.03,-11.62 1.71,-11.74 3.52,-21.52 4.59,-26.98 l -14.76,13.86 z" id="path345"/>
              </g>
              <g id="g347">
                <path class="ColorScheme-Text" d="m 90.56,746.11 -6.27,25.86 c 0,0 -13.88,-2.47 -12.17,-12.93 l 6.07,-37.87 12.37,24.94 z" id="path349" style="fill:currentColor"/>
                <path d="m 84.02,773.47 c -5.31,-0.95 -14.95,-5.23 -13.4,-14.66 l 6.82,-42.56 14.73,29.69 -6.74,27.78 -1.41,-0.25 z m -5.09,-47.37 -5.32,33.19 c -1.17,7.14 6.34,9.98 9.55,10.86 L 88.95,746.3 78.93,726.1 Z" id="path351"/>
              </g>
              <g id="g353">
                <path class="ColorScheme-Text" d="m 125.26,749.63 c 0,0 17.49,-36.31 -13.12,-38.02 -30.61,-1.71 -22.62,33.08 -22.62,33.08 0,0 -17.97,-14.35 -8.65,-30.32 9.32,-15.97 33.46,-13.31 33.46,-13.31 0,0 26.24,2.66 27.57,29.09 -0.01,-0.01 2.28,13.49 -16.64,19.48 z" id="path355" style="fill:currentColor"/>
                <path d="m 123.89,748.97 c 0.09,-0.18 8.75,-18.47 2.66,-28.79 -2.53,-4.29 -7.41,-6.67 -14.49,-7.06 -7.73,-0.44 -13.5,1.54 -17.15,5.86 -7.55,8.94 -3.95,25.2 -3.91,25.36 l 0.97,4.24 -3.4,-2.71 c -0.19,-0.15 -18.88,-15.37 -9.01,-32.28 9.7,-16.63 33.91,-14.17 34.93,-14.05 0.28,0.03 27.73,3.19 29.15,30.55 0.17,1.43 1.07,14.98 -17.91,20.99 l -3.35,1.06 1.51,-3.17 z M 82.18,715.13 c -6.24,10.69 0.69,20.61 5.15,25.39 -0.64,-5.94 -0.7,-16.43 5.25,-23.49 4.3,-5.1 10.91,-7.43 19.65,-6.95 8.16,0.46 13.86,3.34 16.94,8.56 5.28,8.96 1.23,22.24 -1.14,28.36 13.9,-5.84 12.44,-16.15 12.37,-16.61 l -0.02,-0.18 c -1.25,-24.78 -25.19,-27.55 -26.22,-27.66 -0.06,-0.01 -1.46,-0.15 -3.67,-0.15 -6.9,0.02 -21.71,1.41 -28.31,12.73 z" id="path357"/>
              </g>
            </g>
          </g>
        </g>
      </g>
    </g>
  </g>
</svg>
